<svg xmlns="http://www.w3.org/2000/svg" width="295.194" height="32.602" viewBox="0 0 295.194 32.602">
  <g id="Group_89" data-name="Group 89" transform="translate(-479.434 -636.974)">
    <path id="Path_73" data-name="Path 73" d="M480.435,669.576a1,1,0,0,1-.594-1.8,121.144,121.144,0,0,1,12.174-7.541c4.534-2.51,9.32-4.893,14.224-7.08a193.37,193.37,0,0,1,18.823-7.243,178.825,178.825,0,0,1,48.967-8.827,164.253,164.253,0,0,1,59.892,8.991c34.077,11.78,62.5,14.988,83.341,14.988,5.717,0,10.862-.241,15.4-.613a150.912,150.912,0,0,0,26.456-4.408,71.245,71.245,0,0,0,9.087-2.962,1,1,0,1,1,.8,1.832,71.876,71.876,0,0,1-9.372,3.062,152.934,152.934,0,0,1-26.81,4.469,211.456,211.456,0,0,1-42.657-1.034,277.62,277.62,0,0,1-56.9-13.443,162.161,162.161,0,0,0-53.219-8.93,176.41,176.41,0,0,0-54.368,8.777,189.942,189.942,0,0,0-32.7,14.172,121.473,121.473,0,0,0-11.956,7.4A1,1,0,0,1,480.435,669.576Z" transform="translate(0)" fill="#f71c7c"/>
    <path id="Path_74" data-name="Path 74" d="M603.174,655.506a1,1,0,0,1-.962-1.275l2.208-7.729c-3.2.661-6.309,1.364-6.789,1.584a1,1,0,0,1-.891-1.791c.2-.1.667-.333,4.892-1.247,2.035-.44,3.987-.831,4.006-.835a1,1,0,0,1,1.158,1.255l-2.66,9.312A1,1,0,0,1,603.174,655.506Z" transform="translate(167.794 3.711)" fill="#f71c7c"/>
  </g>
</svg>
