<svg xmlns="http://www.w3.org/2000/svg" xmlns:xlink="http://www.w3.org/1999/xlink" width="17" height="17" viewBox="0 0 17 17">
  <defs>
    <linearGradient id="linear-gradient" x1="0.5" x2="0.5" y2="1" gradientUnits="objectBoundingBox">
      <stop offset="0" stop-color="#0a78c7"/>
      <stop offset="1" stop-color="#f71c7c"/>
    </linearGradient>
  </defs>
  <g id="Group_238" data-name="Group 238" transform="translate(-802 -27)">
    <path id="Union_3" data-name="Union 3" d="M-3264-959.5a8.5,8.5,0,0,1,8.5-8.5,8.5,8.5,0,0,1,8.5,8.5,8.5,8.5,0,0,1-8.5,8.5A8.5,8.5,0,0,1-3264-959.5Zm1.5,0a7.008,7.008,0,0,0,7,7,7.008,7.008,0,0,0,7-7,7.008,7.008,0,0,0-7-7A7.008,7.008,0,0,0-3262.5-959.5Zm6.363,5.318a.871.871,0,0,1-.252-.644.894.894,0,0,1,.252-.651.859.859,0,0,1,.644-.259.843.843,0,0,1,.63.259.9.9,0,0,1,.252.651.875.875,0,0,1-.252.644.857.857,0,0,1-.63.252A.874.874,0,0,1-3256.137-954.182Zm.315-2.618a.565.565,0,0,1-.119-.378,3.043,3.043,0,0,1,.294-1.4,7.331,7.331,0,0,1,.853-1.26,5.835,5.835,0,0,0,.665-.931,1.8,1.8,0,0,0,.217-.875,1.012,1.012,0,0,0-.392-.841,1.655,1.655,0,0,0-1.05-.308,2.642,2.642,0,0,0-1.1.231,6.577,6.577,0,0,0-1.141.693.965.965,0,0,1-.462.167.41.41,0,0,1-.343-.175.683.683,0,0,1-.133-.427.7.7,0,0,1,.266-.561,4.435,4.435,0,0,1,1.392-.819,4.553,4.553,0,0,1,1.6-.3,3.569,3.569,0,0,1,1.449.28,2.308,2.308,0,0,1,.995.791,1.993,1.993,0,0,1,.357,1.169,2.458,2.458,0,0,1-.176.945,3.158,3.158,0,0,1-.434.756q-.259.329-.707.819a8.667,8.667,0,0,0-.889,1.092,2.429,2.429,0,0,0-.385,1.078.461.461,0,0,1-.148.287.435.435,0,0,1-.3.105A.392.392,0,0,1-3255.822-956.8Z" transform="translate(4066 995)" fill="url(#linear-gradient)"/>
  </g>
</svg>
