<svg xmlns="http://www.w3.org/2000/svg" xmlns:xlink="http://www.w3.org/1999/xlink" width="20.376" height="17.001" viewBox="0 0 20.376 17.001">
  <defs>
    <linearGradient id="linear-gradient" x1="0.5" x2="0.5" y2="1" gradientUnits="objectBoundingBox">
      <stop offset="0" stop-color="#0a78c7"/>
      <stop offset="1" stop-color="#f71c7c"/>
    </linearGradient>
  </defs>
  <path id="headset" d="M17.853,10.861V9.65a7.65,7.65,0,0,0-15.3,0v1.21A4.25,4.25,0,0,0,4.252,19a1.7,1.7,0,0,0,1.7-1.7V12.2a1.7,1.7,0,0,0-1.7-1.7V9.65a5.95,5.95,0,0,1,11.9,0v.85a1.7,1.7,0,0,0-1.7,1.7v5.1H11.9a.85.85,0,1,0,0,1.7h4.25a4.25,4.25,0,0,0,1.7-8.14ZM4.252,17.3h0a2.55,2.55,0,0,1,0-5.1Zm11.9,0V12.2a2.55,2.55,0,1,1,0,5.1Z" transform="translate(-0.014 -2)" fill="url(#linear-gradient)"/>
</svg>
