<svg xmlns="http://www.w3.org/2000/svg" xmlns:xlink="http://www.w3.org/1999/xlink" width="17" height="17" viewBox="0 0 17 17">
  <defs>
    <linearGradient id="linear-gradient" x1="0.5" x2="0.5" y2="1" gradientUnits="objectBoundingBox">
      <stop offset="0" stop-color="#0a78c7"/>
      <stop offset="1" stop-color="#f71c7c"/>
    </linearGradient>
  </defs>
  <path id="Icon_awesome-whatsapp" data-name="Icon awesome-whatsapp" d="M14.454,4.72A8.427,8.427,0,0,0,1.2,14.886L0,19.25l4.466-1.173A8.4,8.4,0,0,0,8.493,19.1h0A8.505,8.505,0,0,0,17,10.678,8.457,8.457,0,0,0,14.454,4.72ZM8.5,17.683a6.99,6.99,0,0,1-3.567-.975l-.254-.152-2.649.694.706-2.584L2.565,14.4a7.016,7.016,0,1,1,13.012-3.723A7.08,7.08,0,0,1,8.5,17.683Zm3.84-5.244c-.209-.106-1.245-.615-1.438-.683s-.334-.106-.474.106-.543.683-.668.827-.247.159-.455.053a5.73,5.73,0,0,1-2.865-2.5c-.216-.372.216-.345.619-1.15a.39.39,0,0,0-.019-.368c-.053-.106-.474-1.142-.649-1.563S6.041,6.8,5.912,6.8s-.262-.008-.4-.008a.78.78,0,0,0-.562.262,2.365,2.365,0,0,0-.736,1.757,4.124,4.124,0,0,0,.858,2.178,9.406,9.406,0,0,0,3.6,3.18,4.119,4.119,0,0,0,2.527.527,2.156,2.156,0,0,0,1.419-1,1.76,1.76,0,0,0,.121-1C12.686,12.594,12.545,12.541,12.337,12.439Z" transform="translate(0 -2.25)" fill="url(#linear-gradient)"/>
</svg>
